<svg xmlns="http://www.w3.org/2000/svg" viewBox="0 0 236.5 241.24"><g id="Layer_2" data-name="Layer 2"><g id="Layer_1-2" data-name="Layer 1"><path d="M186.74,36c-14.48,0-26.25,12-26.25,26.78s11.77,26.77,26.25,26.77S213,77.54,213,62.78,201.21,36,186.74,36Zm0,47.33a20.56,20.56,0,1,1,20.15-20.55A20.38,20.38,0,0,1,186.74,83.33Z"/><path d="M216.17,0H20.33A20.56,20.56,0,0,0,0,20.74V220.51a20.56,20.56,0,0,0,20.33,20.73H216.17a20.56,20.56,0,0,0,20.33-20.73V20.74A20.56,20.56,0,0,0,216.17,0ZM230.4,220.51A14.39,14.39,0,0,1,216.17,235H20.33A14.39,14.39,0,0,1,6.1,220.51v-44L80.92,103.1l39.3,38.27,27.55-29.32,82.63,64.64Zm0-51.65-83.25-65.13L120,132.6,80.9,94.5,6.1,167.86V20.74A14.39,14.39,0,0,1,20.33,6.22H216.17A14.39,14.39,0,0,1,230.4,20.74Z"/></g></g></svg>